<?xml version="1.0" encoding="utf-8"?>
<!-- Generator: Adobe Illustrator 23.0.1, SVG Export Plug-In . SVG Version: 6.00 Build 0)  -->
<svg version="1.1"
	 id="svg10" xmlns:cc="http://creativecommons.org/ns#" xmlns:dc="http://purl.org/dc/elements/1.1/" xmlns:inkscape="http://www.inkscape.org/namespaces/inkscape" xmlns:rdf="http://www.w3.org/1999/02/22-rdf-syntax-ns#" xmlns:sodipodi="http://sodipodi.sourceforge.net/DTD/sodipodi-0.dtd" xmlns:svg="http://www.w3.org/2000/svg"
	 xmlns="http://www.w3.org/2000/svg" xmlns:xlink="http://www.w3.org/1999/xlink" x="0px" y="0px" viewBox="0 0 4096 1544.8"
	 style="enable-background:new 0 0 4096 1544.8;" xml:space="preserve">
<style type="text/css">
	.st0{fill:#1A1A1A;}
	.st1{fill:#B7BBBE;}
</style>
<sodipodi:namedview  bordercolor="#666666" borderopacity="1" gridtolerance="10" guidetolerance="10" id="namedview12" inkscape:current-layer="svg10" inkscape:cx="2715.1627" inkscape:cy="3141.4496" inkscape:pageopacity="0" inkscape:pageshadow="2" inkscape:window-height="1017" inkscape:window-maximized="1" inkscape:window-width="1920" inkscape:window-x="-8" inkscape:window-y="-8" inkscape:zoom="0.094018179" objecttolerance="10" pagecolor="#ffffff" showgrid="false">
	</sodipodi:namedview>
<path id="path2" inkscape:connector-curvature="0" inkscape:export-filename="G:\Users\suitedoalex\sites\softbank-logo-4.png" inkscape:export-xdpi="12.661186" inkscape:export-ydpi="12.661186" class="st0" d="
	M1557.2,656.6c-12.7-61.9-25.8-83.3-97-83.3c-30.2,0-54.9,8.4-71.5,22.9c-14,11-22,28-21.5,45.8c0.7,18,8,35.2,20.5,48.2
	c15.6,15,38.5,28.6,76.5,47.5c47.1,24.2,82.6,38,108.5,67.4c16.3,20.3,25.2,45.5,25.3,71.5c0.9,30.3-11.4,59.6-33.8,80.1
	c-25.3,22.9-65,37.9-118.7,37.9c-38.4-0.8-76.3-7.8-112.4-20.8c-4.2-30.1-10.8-59.8-19.7-88.8l21.5-5.5
	c19.2,74.2,53,92.3,116.9,92.3c25.9,0.7,51.3-7.2,72.3-22.3c19.7-14.8,31.1-38,30.8-62.6c0.9-19.7-6.1-39-19.3-53.6
	c-19.2-22.9-51.8-37.3-86.8-54.8c-36.8-18.7-87.3-45.8-104.8-70.4c-11.8-17-18-37.1-18-57.8c-0.2-28.1,13.1-54.5,35.8-71.2
	c21.5-16.9,54.8-28.6,101.8-28.6c34.2-0.8,68.2,5,100.2,17.1c3.5,24.7,9,57.2,14.3,84.4L1557.2,656.6z M1690.1,850
	c0-46.4,8.5-76.5,24.7-97.6c31.2-32.6,82.9-33.8,115.5-2.6c0.9,0.8,1.8,1.7,2.6,2.6c16.2,21.5,24.7,51.2,24.7,97.6
	c0,48.8-10.2,79.5-25.3,98.8c-30.2,32.2-80.8,33.9-113,3.8c-1.3-1.2-2.6-2.5-3.8-3.8C1700.4,929.5,1690.1,898.7,1690.1,850z
	 M1646.9,849.4c0,54.8,14.3,90.9,37.9,113.2c24.2,21.5,53.1,30.2,89.2,30.2c37.9,0,67.5-9.7,91.5-31.4c22.9-22.3,36.8-57.8,36.8-112
	c0-47.6-13.2-84.3-36.8-107.8c-23.5-22.3-51.2-33.1-91.5-33.1c-38.6,0-66.3,10.8-89.8,32.5C1660,764.4,1646.9,802.1,1646.9,849.4z
	 M1982.8,734.3h-44.6v-19.2h44.6v-38c0-36.8,9.1-64.4,28.6-85c31.4-27.6,77.2-31.3,112.6-9.1c17.4,11.4,25.9,26.5,25.9,37.3
	c0,12.1-6.1,18.7-16.9,18.7c-14.3,0-19.8-12.7-26.5-26s-14.3-25.9-33.1-25.9c-11.5-0.2-22.6,4.6-30.2,13.3
	c-11.9,14.3-19.2,35.8-19.2,78.7V715h76.5v19.2h-76.1v196.9c0,36.2,2.4,39.8,47.6,39.8v15h-134.5v-15c42.2,0,45.2-4.2,45.2-41.1
	V734.3z"/>
<path id="path4" inkscape:connector-curvature="0" inkscape:export-filename="G:\Users\suitedoalex\sites\softbank-logo-4.png" inkscape:export-xdpi="12.661186" inkscape:export-ydpi="12.661186" class="st0" d="
	M2126.9,720.5c37.9-3.6,63.9-18.2,71.5-81.3h15V715h63.9v19.2h-63.9v194.6c0,28.6,8.4,42.9,29.5,42.9c13.7-0.2,26.9-5.1,37.4-13.9
	l9.6,13.4c-16.2,14.5-37.4,22.1-59.1,21.5c-30.7,0-59-14.3-59-61.6V734.3h-45.1L2126.9,720.5z M2417,603c0-16.3,2.4-21.5,18.2-21.5
	h57.2c42.3,0,69.3,9.6,85.8,23.5c14.9,14.3,23.5,34.1,23.6,54.8c1.3,24.6-9,48.4-27.8,64.4c-21.5,18.1-55.4,25.9-97,25.9h-60.2
	L2417,603z M2372.4,922.8c0,42.9-3.6,45.8-48.8,45.8v17.5H2520c62.6,0,98.2-14.3,121.6-37.4c22.3-21.8,34.6-51.9,33.8-83
	c-0.2-29.5-14.6-57.1-38.6-74.2c-25.8-19.9-60.8-30.1-100.1-31.3v-1c37.9-5.4,63.2-17.5,81.3-33.7c19.5-17.7,30.5-43,30.1-69.3
	c0-28.5-14.5-55-38.5-70.4c-32.5-21.5-68.8-26.5-124.2-26.5h-161.7v17.5c45.1,0,48.8,3,48.8,46.4V922.8z M2417,773.5h74.8
	c49.3,0,82.5,8.4,103.6,24.7c21,15.5,33.4,40.1,33.1,66.2c0,31.4-9.1,53.6-23.6,68.7c-20.5,21-48.1,30.1-90.9,30.1h-74.8
	c-18.7,0-22.3-4.3-22.3-29.6L2417,773.5z M2875.7,938.5c-15.1,15-35.8,31.3-65,31.3c-14.6,0.7-29-4.5-39.8-14.3
	c-9.3-10.3-14.1-24-13.2-37.9c0-27.7,16.9-43.3,40.3-56c22.3-13.8,51.8-22.3,77.7-29.5V938.5z M2917.4,792.1
	c0-26.5-4.3-42.9-19.9-60.2s-36.2-23.5-72.2-23.5c-24-0.8-47.8,5.1-68.7,16.9c-19.3,11.4-31.3,27.7-31.3,42.1
	c-0.7,8.9,5.9,16.7,14.8,17.4c0.7,0.1,1.3,0.1,2,0c9.6,1,18.5-5,21-14.3c3.7-11.3,10.1-21.4,18.8-29.5c11.6-9.3,26.1-14.2,40.9-13.7
	c19.9,0,34.3,5.9,43.3,18c7.8,10.2,9.7,28.6,9.7,42.1v26l-35.8,8.4c-31.5,5.8-61.7,17.4-89.1,34.1c-26.5,17.5-37.3,39.2-37.3,66.9
	c-0.6,20.1,8.3,39.3,24,51.8c15.9,12.2,35.4,18.6,55.4,18.2c31.6,1.2,62.2-10.9,84.5-33.3h2.1c5.4,20,18.1,30.8,39.2,30.8
	c12.7,0.1,25.3-2.8,36.8-8.4L2952,968c-4.9,2.9-10.6,4.4-16.3,4.2c-12,0-18-12-18-39.1L2917.4,792.1z M3223.8,932.5
	c0,33.8,2.5,38.6,29.5,38.6v15h-102v-15c29,0,30.8-3.6,30.8-39.8V797c0-23.5-3-42.9-14.3-54.9c-9.4-8.7-22.1-13-34.8-12
	c-25.4,0-52.4,22.9-76.5,56v145.1c0,36.2,0.5,39.8,28.6,39.8v15h-105.3v-15c32.5,0,34.9-3.6,34.9-39.8V784.9
	c0-34.9-3-39.1-34.9-38.5V733c26.5-4.1,47-10.2,66.8-24.7l6,3.6l2.4,46.4h1.3c24-30.7,54.6-50.1,87.9-50.1
	c25.8,0,44.6,6.7,57.8,19.4c13.2,12.7,21.5,34.9,21.5,66.8L3223.8,932.5z M3365.1,837.9l85.8-83.8c16.2-15,20.5-24-8.4-24v-15h89.4
	v15c-15.6-0.2-30.6,6.4-40.9,18.1l-63.2,60.1l92.1,139.7c13.4,21.1,26.5,23.5,44.6,23v15h-68.7l-98.1-151.8l-33.8,33.1v63.7
	c0,35,1.2,39.8,34.3,39.8v15h-112.1v-15c34.9,0,35.8-4.9,35.8-39.8V645.8c0-35-3.6-39.1-35.8-39.1v-13.2
	c25.6-2.8,50.3-11.2,72.2-24.7l5.4,3.6v265.6L3365.1,837.9z"/>
<path id="path6" inkscape:connector-curvature="0" inkscape:export-filename="G:\Users\suitedoalex\sites\softbank-logo-4.png" inkscape:export-xdpi="12.661186" inkscape:export-ydpi="12.661186" class="st1" d="
	M531.6,550.6h602.2v148H531.6V550.6z M531.6,846.5h602.2v148H531.6V846.5z"/>
</svg>
