<?xml version="1.0" encoding="UTF-8" standalone="no"?>
<svg
   xmlns:dc="http://purl.org/dc/elements/1.1/"
   xmlns:cc="http://creativecommons.org/ns#"
   xmlns:rdf="http://www.w3.org/1999/02/22-rdf-syntax-ns#"
   xmlns:svg="http://www.w3.org/2000/svg"
   xmlns="http://www.w3.org/2000/svg"
   xmlns:sodipodi="http://sodipodi.sourceforge.net/DTD/sodipodi-0.dtd"
   xmlns:inkscape="http://www.inkscape.org/namespaces/inkscape"
   width="4096"
   height="4096"
   viewBox="0 0 11093.116 11043.702"
   version="1.1"
   id="svg10"
   sodipodi:docname="softbank-logo.svg"
   inkscape:export-filename="G:\Users\suitedoalex\sites\softbank-logo-0.png"
   inkscape:export-xdpi="96"
   inkscape:export-ydpi="96"
   inkscape:version="0.92.2 (5c3e80d, 2017-08-06)">
  <metadata
     id="metadata16">
    <rdf:RDF>
      <cc:Work
         rdf:about="">
        <dc:format>image/svg+xml</dc:format>
        <dc:type
           rdf:resource="http://purl.org/dc/dcmitype/StillImage" />
        <dc:title></dc:title>
      </cc:Work>
    </rdf:RDF>
  </metadata>
  <defs
     id="defs14" />
  <sodipodi:namedview
     pagecolor="#ffffff"
     bordercolor="#666666"
     borderopacity="1"
     objecttolerance="10"
     gridtolerance="10"
     guidetolerance="10"
     inkscape:pageopacity="0"
     inkscape:pageshadow="2"
     inkscape:window-width="1920"
     inkscape:window-height="1017"
     id="namedview12"
     showgrid="false"
     inkscape:zoom="0.094018179"
     inkscape:cx="2715.1627"
     inkscape:cy="3141.4496"
     inkscape:window-x="-8"
     inkscape:window-y="-8"
     inkscape:window-maximized="1"
     inkscape:current-layer="svg10" />
  <path
     d="m 4217.2774,5208.1691 c -34.2827,-167.5401 -69.9213,-225.6465 -262.6409,-225.6465 -81.7363,0 -148.5586,22.6615 -193.6879,61.9802 a 152.23875,152.23875 0 0 0 -58.1064,123.9603 199.11124,199.11124 0 0 0 55.5884,130.5457 c 42.224,40.6745 104.2042,77.4752 207.0525,128.6088 127.4467,65.4665 223.7096,103.042 293.8246,182.6478 a 311.06289,311.06289 0 0 1 68.5656,193.6877 282.78444,282.78444 0 0 1 -91.4208,216.931 c -68.5655,61.98 -176.0623,102.654 -321.522,102.654 a 960.69235,960.69235 0 0 1 -304.4775,-56.363 1571.9716,1571.9716 0 0 0 -53.4579,-240.56 l 58.1064,-14.914 c 52.1021,200.854 143.5228,249.857 316.4862,249.857 a 320.5536,320.5536 0 0 0 195.8185,-60.43 208.21457,208.21457 0 0 0 83.2858,-169.671 203.37237,203.37237 0 0 0 -52.2957,-145.266 c -52.1021,-61.9802 -140.4238,-101.1052 -234.9435,-148.365 -99.5556,-50.5526 -236.493,-123.9603 -283.7529,-190.7827 a 274.45586,274.45586 0 0 1 -48.8094,-156.4999 237.46146,237.46146 0 0 1 96.844,-192.7195 c 58.1064,-45.7104 148.365,-77.4752 275.8117,-77.4752 a 722.84352,722.84352 0 0 1 271.3568,46.2914 c 9.4908,67.0161 24.4047,154.9504 38.7376,228.5518 z m 360.066,523.7323 c 0,-125.7035 23.0489,-207.0524 67.016,-264.3841 a 221.19167,221.19167 0 0 1 319.7789,0 c 43.9671,58.1064 67.016,138.6806 67.016,264.3841 0,132.0957 -27.6974,215.3807 -68.5655,267.4827 a 216.54316,216.54316 0 0 1 -316.2925,0 c -41.0618,-52.102 -68.9529,-135.387 -68.9529,-267.4827 z m -117.1812,-1.5495 c 0,148.3652 38.7376,246.1772 102.6546,306.6082 65.4665,58.106 143.7165,81.736 241.5289,81.736 102.6546,0 182.8414,-26.341 247.9206,-85.029 61.9801,-60.43 99.5556,-156.5 99.5556,-303.3152 0,-128.9962 -35.6386,-228.3581 -99.5556,-292.0815 -63.7233,-60.4306 -138.6806,-89.6775 -247.9206,-89.6775 -104.5915,0 -179.5488,29.2469 -243.0784,88.128 -65.4666,63.5297 -101.1051,165.6033 -101.1051,293.631 z m 909.7524,-311.6439 h -120.8613 v -52.1021 h 120.8613 v -102.8483 c 0,-99.7493 24.5983,-174.3192 77.4752,-230.1013 a 256.24919,256.24919 0 0 1 305.0585,-24.5984 c 47.2599,30.9901 70.1151,71.8582 70.1151,101.1051 0,32.7333 -16.4635,50.7463 -45.9041,50.7463 -38.7376,0 -53.6515,-34.4765 -71.6645,-70.3088 -18.013,-35.8322 -38.7376,-70.115 -89.6776,-70.115 a 105.75363,105.75363 0 0 0 -81.7363,36.026 c -32.3459,38.7375 -51.9084,96.8439 -51.9084,213.0567 v 96.844 h 207.0525 v 52.1021 h -206.084 v 533.2228 c 0,98.006 6.3917,107.884 128.9962,107.884 v 40.675 h -364.1334 v -40.675 c 114.2759,0 122.4108,-11.427 122.4108,-111.177 z"
     id="path2"
     style="fill:#1a1a1a;stroke-width:19.3687973"
     inkscape:connector-curvature="0"
     inkscape:export-filename="G:\Users\suitedoalex\sites\softbank-logo-4.png"
     inkscape:export-xdpi="12.661186"
     inkscape:export-ydpi="12.661186" />
  <path
     d="m 5760.1958,5381.1325 c 102.6547,-9.6844 172.9634,-49.1967 193.688,-220.2232 h 40.6745 v 205.5029 h 172.9634 v 52.1021 h -172.9634 v 527.0248 c 0,77.475 22.8552,116.213 79.9931,116.213 a 161.14839,161.14839 0 0 0 101.2988,-37.769 l 25.9542,36.219 a 229.52025,229.52025 0 0 1 -159.9862,58.107 c -83.0922,0 -159.7926,-38.738 -159.7926,-166.766 V 5418.708 h -122.2171 z m 785.5985,-318.0357 c 0,-44.1608 6.3917,-58.1064 49.1967,-58.1064 h 154.9504 c 114.4696,0 187.6836,25.9542 232.4256,63.7234 a 207.63351,207.63351 0 0 1 63.917,148.365 214.2189,214.2189 0 0 1 -75.3446,174.3192 c -58.1064,49.003 -150.1082,70.115 -262.6409,70.115 h -163.0853 z m -120.6676,866.1723 c 0,116.213 -9.8781,123.961 -132.0952,123.961 v 47.453 h 531.8671 c 169.6707,0 265.9336,-38.737 329.2696,-101.299 a 302.92799,302.92799 0 0 0 91.4207,-224.871 248.50167,248.50167 0 0 0 -104.5915,-200.8548 c -69.9213,-53.8452 -164.6348,-81.5426 -271.1632,-84.8353 v -2.7116 c 102.6547,-14.7203 171.2202,-47.2599 220.2233,-91.2271 a 249.27642,249.27642 0 0 0 81.5426,-187.6836 227.19599,227.19599 0 0 0 -104.2041,-190.7827 c -88.128,-58.1064 -186.3279,-71.8582 -336.436,-71.8582 h -437.9285 v 47.2599 c 122.2171,0 132.0952,8.1349 132.0952,125.7035 z m 120.6676,-404.4201 h 202.5976 c 133.451,0 223.3222,22.8552 280.6539,66.8223 a 220.02954,220.02954 0 0 1 89.6775,179.3548 c 0,85.029 -24.5984,145.266 -63.917,186.134 -55.3948,56.945 -130.1584,81.543 -246.1775,81.543 h -202.5976 c -50.5525,0 -60.4306,-11.621 -60.4306,-80.187 z m 1242.5083,446.8381 c -40.8681,40.675 -96.844,84.642 -176.0623,84.642 a 150.10818,150.10818 0 0 1 -107.8843,-38.738 140.03641,140.03641 0 0 1 -35.8322,-102.655 c 0,-74.957 45.7103,-117.374 109.24,-151.657 60.4306,-37.382 140.4238,-60.4309 210.5388,-79.7997 z m 112.7264,-396.4793 c 0,-71.8582 -11.6213,-116.2127 -53.8452,-163.0852 -42.224,-46.8725 -98.0062,-63.7234 -195.6249,-63.7234 a 354.83637,354.83637 0 0 0 -186.1341,45.7104 c -52.2958,30.7964 -84.8354,75.1509 -84.8354,114.0822 a 43.773482,43.773482 0 0 0 45.5167,47.2599 53.070505,53.070505 0 0 0 56.9443,-38.7376 188.4584,188.4584 0 0 1 50.9399,-79.7995 167.92747,167.92747 0 0 1 110.7895,-37.1881 c 53.8453,0 92.9703,15.8825 117.3749,48.8094 21.112,27.6974 26.1479,77.4752 26.1479,114.0822 v 70.3088 l -96.844,22.8551 a 712.19068,712.19068 0 0 0 -241.3352,92.3892 c -71.8582,47.2599 -101.1051,106.1409 -101.1051,181.0979 a 172.18861,172.18861 0 0 0 65.0792,140.23 239.39834,239.39834 0 0 0 150.1081,49.197 306.027,306.027 0 0 0 228.7455,-90.258 h 5.8107 c 14.5266,54.039 49.003,83.285 106.141,83.285 a 218.28635,218.28635 0 0 0 99.5556,-22.855 l -9.6844,-37.382 a 81.155261,81.155261 0 0 1 -44.1609,11.428 c -32.5395,0 -48.8093,-32.54 -48.8093,-105.947 z m 829.953,380.2093 c 0,91.421 6.7791,104.592 79.9931,104.592 v 40.674 h -276.199 v -40.674 c 78.4436,0 83.2858,-9.878 83.2858,-107.884 v -363.7465 c 0,-63.5296 -8.1349,-116.2128 -38.7376,-148.5586 a 125.12243,125.12243 0 0 0 -94.326,-32.5396 c -68.7593,0 -141.9733,61.9801 -207.2462,151.6577 v 392.993 c 0,98.006 1.3558,107.884 77.4752,107.884 v 40.675 h -285.3024 v -40.675 c 87.9344,0 94.5198,-9.878 94.5198,-107.884 v -396.2857 c 0,-94.5198 -8.1349,-105.9474 -94.5198,-104.3979 v -36.0259 c 71.6646,-11.2339 127.253,-27.5037 180.9046,-66.8224 l 16.2698,9.6844 6.5854,125.7035 h 3.4864 c 65.0791,-83.0921 147.9776,-135.5816 238.0425,-135.5816 69.9213,0 120.6676,18.013 156.4999,52.4895 35.8322,34.4764 58.1064,94.5197 58.1064,180.9045 z m 382.5337,-256.249 232.4256,-227.0023 c 43.9672,-40.6744 55.5885,-65.0791 -22.8552,-65.0791 v -40.6745 h 242.11 v 40.6745 a 145.07229,145.07229 0 0 0 -110.7895,49.003 l -171.2202,162.8916 249.4701,378.4668 c 36.2197,57.137 71.8583,63.723 120.8613,62.173 v 40.675 h -185.9404 l -265.7399,-411.006 -91.4208,89.677 v 172.576 c 0,94.714 3.2927,107.885 92.9703,107.885 v 40.674 h -303.5091 v -40.674 c 94.5197,0 96.844,-13.171 96.844,-107.885 v -772.6208 c 0,-94.7135 -9.6844,-105.9474 -96.844,-105.9474 v -35.8322 a 471.04915,471.04915 0 0 0 195.6249,-67.0161 l 14.5266,9.6844 v 719.3571 z"
     id="path4"
     style="fill:#1a1a1a;stroke-width:19.3687973"
     inkscape:connector-curvature="0"
     inkscape:export-filename="G:\Users\suitedoalex\sites\softbank-logo-4.png"
     inkscape:export-xdpi="12.661186"
     inkscape:export-ydpi="12.661186" />
  <path
     d="M 1439.5982,4921.1236 H 3070.6446 V 5321.864 H 1439.5982 Z m 0,801.4808 h 1631.0464 v 400.9337 H 1439.5982 Z"
     id="path6"
     style="fill:#b7bbbe;fill-opacity:1;stroke-width:19.3687973"
     inkscape:connector-curvature="0"
     inkscape:export-filename="G:\Users\suitedoalex\sites\softbank-logo-4.png"
     inkscape:export-xdpi="12.661186"
     inkscape:export-ydpi="12.661186" />
  <path
     inkscape:connector-curvature="0"
     d="m 19345.199,4566.0532 c -68.706,-335.7654 -140.128,-452.2111 -526.352,-452.2111 -163.806,0 -297.723,45.415 -388.165,124.2127 a 305.09787,305.09787 0 0 0 -116.449,248.4252 399.03384,399.03384 0 0 0 111.403,261.6209 c 84.62,81.512 208.833,155.2687 414.949,257.7433 255.412,131.1923 448.33,206.5001 588.846,366.0342 a 623.39333,623.39333 0 0 1 137.41,388.1718 566.72121,566.72121 0 0 1 -183.214,434.7383 c -137.409,124.2127 -352.842,205.7364 -644.354,205.7364 a 1925.2994,1925.2994 0 0 1 -610.196,-112.9558 3150.3489,3150.3489 0 0 0 -107.134,-482.1039 l 116.451,-29.8928 c 104.416,402.5307 287.63,500.7399 634.261,500.7399 a 642.41342,642.41342 0 0 0 392.436,-121.1106 417.27759,417.27759 0 0 0 166.911,-340.0307 407.57348,407.57348 0 0 0 -104.805,-291.126 c -104.417,-124.2126 -281.42,-202.6225 -470.844,-297.3418 -199.517,-101.3113 -473.951,-248.4253 -568.663,-382.3437 a 550.0301,550.0301 0 0 1 -97.817,-313.6278 475.89055,475.89055 0 0 1 194.083,-386.233 c 116.449,-91.6055 297.334,-155.257 552.746,-155.257 a 1448.6327,1448.6327 0 0 1 543.82,92.7688 c 19.02,134.3062 48.909,310.5257 77.632,458.0275 z m 721.599,1049.5973 c 0,-251.9151 46.191,-414.9508 134.306,-529.8454 a 443.28467,443.28467 0 0 1 640.86,0 c 88.113,116.4457 134.305,277.9303 134.305,529.8454 0,264.723 -55.508,431.6363 -137.411,536.0496 a 433.9687,433.9687 0 0 1 -633.873,0 c -82.291,-104.4133 -138.187,-271.3266 -138.187,-536.0496 z m -234.84,-3.1021 c 0,297.3301 77.633,493.349 205.728,614.4595 131.2,116.4457 288.018,163.8112 484.042,163.8112 205.728,0 366.428,-52.7942 496.851,-170.4031 124.213,-121.1106 199.517,-313.6395 199.517,-607.8676 0,-258.5187 -71.423,-457.6514 -199.517,-585.3539 -127.707,-121.1105 -277.926,-179.7211 -496.851,-179.7211 -209.61,0 -359.829,58.6106 -487.147,176.6073 -131.201,127.3264 -202.623,331.8878 -202.623,588.4677 z m 1823.213,-624.5647 h -242.216 v -104.4134 h 242.216 V 4677.458 c 0,-199.9082 49.296,-349.3488 155.265,-461.1413 a 513.54257,513.54257 0 0 1 611.361,-49.3044 c 94.712,62.1122 140.514,144.012 140.514,202.6226 0,65.602 -32.993,101.699 -91.994,101.699 -77.633,0 -107.522,-69.0919 -143.622,-140.8981 -36.099,-71.8062 -77.633,-140.5221 -179.72,-140.5221 a 211.93821,211.93821 0 0 0 -163.805,72.2057 c -64.824,77.6344 -104.029,194.0801 -104.029,426.9832 v 194.08 h 414.949 v 104.4133 h -413.008 V 6056.217 c 0,196.4066 12.809,216.2059 258.518,216.2059 v 81.512 h -729.75 v -81.512 c 229.017,0 245.321,-22.9014 245.321,-222.8096 z"
     id="path2-5"
     style="fill:#1a1a1a;stroke-width:38.81652069"
     inkscape:export-filename="G:\Users\suitedoalex\sites\softbank-logo-5.png"
     inkscape:export-xdpi="6.3012276"
     inkscape:export-ydpi="6.3012276" />
  <path
     inkscape:connector-curvature="0"
     d="m 22437.322,4912.6876 c 205.728,-19.4115 346.632,-98.5969 388.166,-441.3537 h 81.514 v 411.8487 h 346.632 v 104.4133 h -346.632 v 1056.201 c 0,155.2688 45.804,232.9031 160.312,232.9031 a 322.95345,322.95345 0 0 0 203.012,-75.6955 l 52.014,72.5817 a 459.97578,459.97578 0 0 1 -320.625,116.4574 c -166.524,0 -320.237,-77.6344 -320.237,-334.2143 V 4987.9837 h -244.931 z M 24011.72,4275.315 c 0,-88.5034 12.811,-116.4456 98.595,-116.4456 h 310.532 c 229.406,0 376.132,52.0069 465.799,127.7024 a 416.1131,416.1131 0 0 1 128.094,297.3301 429.31072,429.31072 0 0 1 -150.997,349.3488 c -116.449,98.2092 -300.828,140.5221 -526.352,140.5221 h -326.835 z m -241.826,1735.8748 c 0,232.9031 -19.797,248.4253 -264.729,248.4253 v 95.0953 h 1065.902 c 340.032,0 532.95,-77.6226 659.881,-203.0103 a 607.09038,607.09038 0 0 0 183.214,-450.66 498.01596,498.01596 0 0 0 -209.609,-402.519 c -140.128,-107.9149 -329.941,-163.4234 -543.432,-170.0153 v -5.4404 c 205.728,-29.4933 343.138,-94.7076 441.344,-182.8233 a 499.56862,499.56862 0 0 0 163.418,-376.1277 455.31779,455.31779 0 0 0 -208.833,-382.3437 c -176.615,-116.4574 -373.416,-144.0119 -674.243,-144.0119 h -877.642 v 94.7076 c 244.932,0 264.729,16.3094 264.729,251.9269 z m 241.826,-810.4901 h 406.022 c 267.446,0 447.555,45.8028 562.452,133.9184 a 440.95568,440.95568 0 0 1 179.72,359.4423 c 0,170.4031 -49.298,291.1259 -128.095,373.0257 -111.015,114.1191 -260.847,163.4117 -493.358,163.4117 h -406.021 c -101.31,0 -121.107,-23.2892 -121.107,-160.6974 z m 2490.08,895.5037 c -81.902,81.5119 -194.082,169.6276 -352.842,169.6276 a 300.82805,300.82805 0 0 1 -216.207,-77.6344 280.64345,280.64345 0 0 1 -71.811,-205.7363 c 0,-150.2161 91.607,-235.2179 218.925,-303.9338 121.108,-74.9083 281.42,-121.0988 421.935,-159.9219 z m 225.913,-794.5802 c 0,-144.0119 -23.29,-232.9031 -107.91,-326.8351 -84.62,-93.9321 -196.412,-127.7025 -392.047,-127.7025 a 711.11867,711.11867 0 0 0 -373.027,91.6055 c -104.805,61.7127 -170.016,150.6038 -170.016,228.626 a 87.725337,87.725337 0 0 0 91.218,94.7193 106.35726,106.35726 0 0 0 114.122,-77.6344 377.68475,377.68475 0 0 1 102.086,-159.9336 336.53923,336.53923 0 0 1 222.031,-74.5205 c 107.91,0 186.32,31.8316 235.228,97.8214 42.311,55.4968 52.402,155.257 52.402,228.626 v 140.8981 l -194.082,45.8027 a 1427.2835,1427.2835 0 0 0 -483.654,185.1616 c -144.01,94.7075 -202.623,212.716 -202.623,362.9321 a 345.07887,345.07887 0 0 0 130.424,281.0324 479.7722,479.7722 0 0 0 300.828,98.5969 613.30103,613.30103 0 0 0 458.424,-180.8844 h 11.644 c 29.113,108.291 98.206,166.9015 212.715,166.9015 a 437.46219,437.46219 0 0 0 199.517,-45.8027 l -19.408,-74.9083 a 162.64123,162.64123 0 0 1 -88.502,22.9014 c -65.212,0 -97.818,-65.2143 -97.818,-212.3283 z m 1663.288,761.973 c 0,183.211 13.586,209.6022 160.312,209.6022 v 81.512 h -553.523 v -81.512 c 157.206,0 166.911,-19.7993 166.911,-216.2059 v -728.9781 c 0,-127.3147 -16.304,-232.8913 -77.634,-297.7178 a 250.75473,250.75473 0 0 0 -189.036,-65.2143 c -137.799,0 -284.525,124.2126 -415.337,303.9338 v 787.5887 c 0,196.4066 2.717,216.2059 155.266,216.2059 v 81.5119 h -571.767 v -81.5119 c 176.227,0 189.424,-19.7993 189.424,-216.2059 v -794.1806 c 0,-189.4269 -16.302,-212.3283 -189.424,-209.2262 v -72.194 c 143.621,-22.5136 255.024,-55.1208 362.546,-133.9184 l 32.606,19.3998 13.197,251.9268 h 6.992 c 130.423,-166.5255 296.558,-271.7144 477.054,-271.7144 140.129,0 241.828,36.097 313.637,105.1889 71.811,69.0919 116.451,189.4269 116.451,362.5444 z m 766.626,-513.5477 465.798,-454.9254 c 88.114,-81.5237 111.404,-130.4285 -45.804,-130.4285 v -81.512 h 485.208 v 81.512 a 290.73574,290.73574 0 0 0 -222.031,98.2091 l -343.139,326.4474 499.958,758.4714 c 72.586,114.5069 144.009,127.7025 242.215,124.6004 v 81.512 h -372.639 l -532.562,-823.6857 -183.215,179.7211 v 345.859 c 0,189.8146 6.599,216.2058 186.319,216.2058 v 81.512 h -608.254 v -81.512 c 189.425,0 194.082,-26.3912 194.082,-216.2058 V 4507.4426 c 0,-189.8147 -19.408,-212.3283 -194.082,-212.3283 v -71.8179 a 944.01779,944.01779 0 0 0 392.047,-134.3062 l 29.111,19.4115 v 1441.6468 z"
     id="path4-6"
     style="fill:#1a1a1a;stroke-width:38.81652069"
     inkscape:export-filename="G:\Users\suitedoalex\sites\softbank-logo-5.png"
     inkscape:export-xdpi="6.3012276"
     inkscape:export-ydpi="6.3012276" />
  <path
     inkscape:connector-curvature="0"
     d="m 13778.521,3990.7928 h 3268.74 v 803.1109 h -3268.74 z m 0,1606.2217 h 3268.74 v 803.5104 h -3268.74 z"
     id="path6-9"
     style="fill:#b7bbbe;fill-opacity:1;stroke-width:38.81652069"
     inkscape:export-filename="G:\Users\suitedoalex\sites\softbank-logo-5.png"
     inkscape:export-xdpi="6.3012276"
     inkscape:export-ydpi="6.3012276" />
  <path
     inkscape:connector-curvature="0"
     d="m 27495.891,6702.5081 c -253.86,0 -430.863,191.3656 -430.863,465.8066 0,287.236 168.852,472.785 429.699,472.785 a 698.69738,698.69738 0 0 0 246.485,-38.823 v -468.896 h -281.42 v 97.422 h 173.899 v 287.636 h -3.883 l -13.973,3.49 a 422.32375,422.32375 0 0 1 -119.555,12.42 c -183.214,0 -315.967,-152.931 -315.967,-363.708 0,-210.777 132.365,-363.707 322.177,-363.707 a 364.09896,364.09896 0 0 1 222.42,58.61 l 8.535,-119.5594 a 556.24074,556.24074 0 0 0 -237.557,-43.4762 z m 445.615,343.5326 h 99.758 v 89.666 h 2.328 a 176.22701,176.22701 0 0 1 150.993,-103.25 298.88722,298.88722 0 0 1 70.262,8.143 v 95.107 a 155.26608,155.26608 0 0 0 -59.005,-10.093 c -95.1,0 -157.592,90.83 -157.592,236.005 v 263.172 h -106.749 z m 667.643,-13.584 c 175.839,0 293.842,126.927 293.842,302.759 a 294.61739,294.61739 0 1 1 -588.847,0 c 0,-175.832 118.002,-302.759 295.005,-302.759 z m 0,519.365 c 124.602,0 180.497,-113.344 180.497,-216.606 0,-110.23 -66.764,-216.594 -180.497,-216.594 -113.732,0 -181.661,106.752 -181.661,216.594 0,103.262 55.508,216.993 181.661,216.993 z m 941.301,72.581 h -103.251 v -91.993 h -2.329 a 208.05656,208.05656 0 0 1 -189.426,105.577 c -149.831,0 -216.596,-93.157 -216.596,-248.426 v -343.908 h 106.746 v 299.657 c 0,135.081 29.5,200.683 122.66,206.512 121.496,0 175.839,-97.434 175.839,-238.332 v -267.837 h 106.357 z m 182.438,-578.362 h 102.088 v 81.512 h 2.329 a 232.89913,232.89913 0 0 1 196.023,-95.096 c 168.076,0 249.59,137.409 249.59,292.677 0,155.257 -73.751,313.24 -248.425,313.24 -102.088,0 -159.925,-38.811 -194.084,-93.156 h -2.329 v 317.517 h -105.192 z m 277.927,72.581 c -116.451,0 -171.181,109.854 -171.181,217.769 0,96.259 50.072,215.431 170.016,215.431 119.943,0 162.253,-128.102 159.923,-218.932 1.941,-104.026 -43.086,-214.268 -158.758,-214.268 z"
     id="path8-0"
     style="fill:#1a1a1a;stroke-width:38.81652069"
     inkscape:export-filename="G:\Users\suitedoalex\sites\softbank-logo-5.png"
     inkscape:export-xdpi="6.3012276"
     inkscape:export-ydpi="6.3012276" />
</svg>
